
<svg width="1621" height="157" xmlns="http://www.w3.org/2000/svg" xml:space="preserve" version="1.1">

 <g>
  <title>Layer 1</title>
  <g id="svg_1">
   <path id="svg_2" d="m791.94001,95.38l81.48,0c-3.85,23.1 -27.16,35.5 -59.03,35.5c-35.93,0 -59.88,-19.46 -59.88,-52.61s23.95,-52.82 59.88,-52.82c34.65,0 56.03,11.55 57.74,32.72l30.58,0c-1.5,-34.86 -37,-58.17 -88.32,-58.17c-54.11,0 -90.25,31.22 -90.25,78.27c0,47.05 36.14,78.27 90.25,78.27c27.8,0 53.89,-9.84 67.37,-31.65l0.21,28.23l23.1,0l0,-79.98l-113.13,0l0,22.24z"/>
   <path id="svg_3" d="m1019.28001,3.42l-91.1,149.7l35.07,0l18.39,-31.65l112.06,0l18.61,31.65l35.07,0l-91.32,-149.7l-36.78,0zm-22.88,92.39l41.49,-71.22l41.06,71.22l-82.55,0z"/>
   <polygon id="svg_4" points="1263.0900793075562,108.6400375366211 1200.0001134872437,3.4200048446655273 1168.7800207138062,3.4200048446655273 1168.7800207138062,153.12000274658203 1199.1500158309937,153.12000274658203 1199.1500158309937,52.390037536621094 1260.1000890731812,153.12000274658203 1265.8701086044312,153.12000274658203 1327.0400304794312,51.750022888183594 1327.0400304794312,153.12000274658203 1357.4100255966187,153.12000274658203 1357.4100255966187,3.4200048446655273 1326.1800451278687,3.4200048446655273 "/>
   <polygon id="svg_5" points="1392.7000646591187,153.12000274658203 1533.8400793075562,153.12000274658203 1533.8400793075562,127.45996856689453 1423.0700597763062,127.45996856689453 1423.0700597763062,88.9599838256836 1531.9200353622437,88.9599838256836 1531.9200353622437,65.2199935913086 1423.0700597763062,65.2199935913086 1423.0700597763062,28.870018005371094 1533.8400793075562,28.870018005371094 1533.8400793075562,3.4200048446655273 1392.7000646591187,3.4200048446655273 "/>
   <path id="svg_6" d="m1594.19001,31.08l3.33,0c6.22,0 10.36,-2.96 10.36,-8.14c0,-4.89 -3.7,-8.51 -10.36,-8.51l-25.61,0l0,32.2l7.92,0l-0.07,-13.32l7.77,0c5.48,0 6.66,2.59 12.66,13.32l9.99,0c-5.26,-10.52 -8.22,-15.11 -15.99,-15.55zm-14.44,-3.92l0,-6.29l16.14,0c2.81,0 4.07,0.96 4.07,3.26c0,2 -1.26,3.03 -4.07,3.03l-16.14,0z"/>
   <path id="svg_7" d="m1588.71001,3.47c-19.84,0 -31.98,10.81 -31.98,27.09s11.77,27.09 31.98,27.09c20.28,0 32.05,-10.81 32.05,-27.09c0,-16.5 -11.77,-27.09 -32.05,-27.09zm0,52.18c-19.17,0 -30.05,-10.44 -30.05,-24.94c0,-14.58 10.66,-25.24 30.05,-25.24c19.98,0 29.98,10.44 29.98,24.94c0,14.58 -9.77,25.24 -29.98,25.24z"/>
   <polygon id="svg_8" points="169.37999629974365,3.4200048446655273 126.1799840927124,3.4200048446655273 30.370009422302246,87.68001556396484 30.370009422302246,3.4200048446655273 0,3.4200048446655273 0,153.12000274658203 30.370009422302246,153.12000274658203 30.370009422302246,121.46997833251953 84.26000881195068,75.70003509521484 135.37999629974365,153.12000274658203 174.73000240325928,153.12000274658203 107.99999141693115,55.599998474121094 "/>
   <rect id="svg_9" height="149.7" width="30.37" y="3.42" x="197.62001"/>
   <polygon id="svg_10" points="634.1099157333374,3.4200048446655273 590.9099645614624,3.4200048446655273 495.1000280380249,87.68001556396484 495.1000280380249,3.4200048446655273 464.72997188568115,3.4200048446655273 464.72997188568115,153.12000274658203 495.1000280380249,153.12000274658203 495.1000280380249,121.46997833251953 548.9899206161499,75.70003509521484 600.1099157333374,153.12000274658203 639.4599523544312,153.12000274658203 572.7299108505249,55.599998474121094 "/>
   <path id="svg_11" d="m346.25001,25.45c31.25,0 53.76,13.21 58.56,36.36l31.33,0c-3.79,-37.43 -38.84,-61.81 -89.89,-61.81c-54.11,0 -90.25,31.22 -90.25,78.27c0,47.05 36.14,78.27 90.25,78.27c50.85,0 85.83,-24.18 89.85,-61.36l-31.33,0c-4.84,22.84 -27.28,35.69 -58.53,35.69c-35.93,0 -59.88,-19.46 -59.88,-52.61s23.96,-52.81 59.89,-52.81z"/>
  </g>
 </g>
</svg>